# xmcd
#
# Track frame offsets:
# 183
# 10923
# 19018
# 36663
# 51138
# 71560
# 83200
# 96253
# 109725
# 117893
# 129843
# 143480
# 160703
# 175000
# 195390
# 214193
#
# Disc length: 3164 seconds
#
#
# Revision: 0
# Processed by: cddbd v1.5.1PL2 Copyright (c) Steve Scherf et al.
# Submitted via: FreeRIP 2.942 
#
DISCID=cf0c5a10
DTITLE=Le Beau Lac de Bâle - Fonds de Tiroir et autres...
DYEAR=1989
DGENRE=Rock
TTITLE0=Panne d'éléctricité
TTITLE1=Trois fois pis j'cogne
TTITLE2=Au chalet
TTITLE3=Bouri Bouri
TTITLE4=Je te jette un sort
TTITLE5=Ronnie Ravioli
TTITLE6=Bolomey
TTITLE7=Il pleut sur Rimini
TTITLE8=Y a l'feu sous ma soutane
TTITLE9=Resesda au Borniol
TTITLE10=Tchernobyl
TTITLE11=L'amour serein
TTITLE12=Complet
TTITLE13=Disziplin
TTITLE14=Trop Tard
TTITLE15=Syndrome Amedeus
EXTD=
EXTT0=
EXTT1=
EXTT2=
EXTT3=
EXTT4=
EXTT5=
EXTT6=
EXTT7=
EXTT8=
EXTT9=
EXTT10=
EXTT11=
EXTT12=
EXTT13=
EXTT14=
EXTT15=
PLAYORDER=
